<svg xmlns="http://www.w3.org/2000/svg" width="150" height="44" viewBox="0 0 150 44" fill="none">
  <g clip-path="url(#clip0_3104_3744)">
    <path d="M42.3549 22C42.3549 28.149 39.7363 33.6852 35.5494 37.5536C35.547 37.5512 35.5421 37.5512 35.5373 37.5487C26.6821 34.8645 28.3403 30.0381 28.3403 30.0381C28.3403 30.0381 31.6154 25.951 31.4355 23.1208C31.3261 21.4383 31.044 20.6554 30.8301 20.3004C30.7231 20.1205 30.4824 20.0719 30.3122 20.1959C29.1403 21.0663 24.4525 24.8009 25.9527 28.0444C25.9527 28.0444 27.9562 31.7936 27.6741 33.002C27.6741 33.002 21.6491 28.9464 23.835 22.2601C23.835 22.2601 27.9051 19.8773 27.5428 16.2351C27.1781 12.5929 25.6074 11.4599 25.6074 11.4599C25.6074 11.4599 22.0333 14.1903 22.1014 17.6478C22.1062 17.9055 22.1524 18.1608 22.2351 18.4039C22.4685 19.092 22.9913 20.8305 22.6776 21.8103C22.2886 23.0236 22.8016 26.1795 22.8235 26.323C22.7335 26.143 19.7843 20.2104 19.9958 19.5248C20.2097 18.8294 20.9902 15.5373 19.7478 13.0208C18.8579 11.2167 17.3042 10.1615 16.497 9.70926C16.215 9.55122 15.86 9.67279 15.7384 9.97185C15.1646 11.3504 13.8954 15.1337 15.9743 17.6137C18.5564 20.6919 21.0121 21.9343 22.4539 28.538C22.4539 28.538 20.8905 27.1715 19.8475 25.7078C18.8311 24.2806 14.7537 19.8628 9.95413 23.6266C9.80338 23.7457 9.85687 23.984 10.0441 24.0253C10.9388 24.232 12.9934 24.9468 15.223 27.3515C15.7627 27.9326 16.5627 28.1903 17.3383 28.0249C18.5053 27.7745 20.1174 27.456 20.6134 27.4925C21.423 27.5533 28.3841 35.6352 28.3841 35.6352L27.2924 35.5647C27.0225 35.5477 26.7769 35.4091 26.6189 35.1927C26.3296 34.7891 25.7582 34.1205 24.9291 33.6828C24.1486 33.2719 23.2222 33.2379 22.3931 33.5491C20.9829 34.0816 18.1941 35.2389 17.5376 36.3355C17.4477 36.4862 17.5352 36.6783 17.7054 36.7075C18.3959 36.8217 20.273 37.0892 23.1663 37.15C23.2028 37.1524 23.2393 37.15 23.2733 37.1475C23.6964 37.1159 26.3831 36.8849 27.1028 36.2698C27.2535 36.1409 27.448 36.0729 27.6474 36.0607C28.6126 35.9951 31.2045 36.0972 34.5258 38.4289C30.8811 41.3928 26.2323 43.1725 21.1677 43.1725C9.48001 43.1774 0 33.695 0 22C0 10.3049 9.48001 0.82251 21.1774 0.82251C32.8749 0.82251 42.3549 10.3049 42.3549 22Z" fill="#24BEE0"/>
    <path d="M71.7422 15.5129V29.2576H69.4882V19.8433L65.2965 29.2576H63.7331L59.5195 19.8433V29.2576H57.2656V15.5129H59.6995L64.5258 26.2913L69.3326 15.5129H71.7422Z" fill="black"/>
    <path d="M84.6206 24.6501H76.2956C76.3612 25.5206 76.6846 26.2184 77.2657 26.746C77.8468 27.2736 78.5567 27.5362 79.4004 27.5362C80.6137 27.5362 81.4696 27.028 81.9704 26.0141H84.4018C84.0711 27.0159 83.4755 27.8377 82.6123 28.4772C81.7492 29.1166 80.6769 29.4376 79.398 29.4376C78.3574 29.4376 77.4237 29.2041 76.5995 28.7349C75.7752 28.2681 75.1285 27.6067 74.6617 26.7582C74.1924 25.9072 73.959 24.9225 73.959 23.8016C73.959 22.6807 74.1875 21.696 74.6422 20.845C75.0969 19.994 75.7363 19.34 76.5606 18.878C77.3848 18.416 78.3306 18.1851 79.398 18.1851C80.4265 18.1851 81.3431 18.4087 82.1479 18.8586C82.9527 19.3059 83.5776 19.9357 84.0274 20.7477C84.4748 21.5598 84.7009 22.4911 84.7009 23.5463C84.6984 23.9499 84.6717 24.3195 84.6206 24.6501ZM82.3449 22.829C82.3327 21.9975 82.0336 21.3337 81.455 20.8304C80.8739 20.3295 80.1566 20.0791 79.2983 20.0791C78.5203 20.0791 77.8541 20.3271 77.2997 20.8207C76.7454 21.3143 76.4171 21.9853 76.3101 22.829H82.3449Z" fill="black"/>
    <path d="M86.8453 20.8523C87.3 20.0086 87.92 19.3521 88.7053 18.8853C89.4907 18.4185 90.3636 18.1826 91.3264 18.1826C92.0388 18.1826 92.7415 18.3382 93.432 18.647C94.1249 18.9582 94.6744 19.3691 95.0829 19.8822V14.623H97.3562V29.2576H95.0829V27.6164C94.7133 28.144 94.2027 28.5792 93.5511 28.9221C92.8995 29.2649 92.1506 29.4351 91.3069 29.4351C90.3587 29.4351 89.4907 29.1944 88.7053 28.713C87.92 28.2316 87.3024 27.5605 86.8453 26.6949C86.3907 25.8318 86.1621 24.8519 86.1621 23.7578C86.1621 22.6661 86.3907 21.696 86.8453 20.8523ZM94.6161 21.8419C94.3073 21.2875 93.9012 20.8669 93.4004 20.5751C92.8995 20.2858 92.3597 20.1399 91.7786 20.1399C91.1975 20.1399 90.6578 20.2809 90.1569 20.5654C89.656 20.8498 89.25 21.2632 88.9412 21.8102C88.6324 22.3573 88.4768 23.0065 88.4768 23.7578C88.4768 24.5091 88.6324 25.168 88.9412 25.7345C89.25 26.301 89.6585 26.7338 90.1666 27.0304C90.6748 27.3271 91.2121 27.4754 91.7786 27.4754C92.3597 27.4754 92.8995 27.3295 93.4004 27.0402C93.9012 26.7508 94.3073 26.3253 94.6161 25.7637C94.9249 25.2045 95.0805 24.548 95.0805 23.7967C95.0805 23.0478 94.9273 22.3938 94.6161 21.8419Z" fill="black"/>
    <path d="M102.576 18.3601H100.322V29.2576H102.576V18.3601Z" fill="black"/>
    <path d="M105.474 20.8426C105.928 19.9916 106.558 19.3375 107.363 18.8756C108.168 18.4136 109.089 18.1826 110.132 18.1826C111.45 18.1826 112.542 18.4963 113.405 19.1211C114.268 19.7484 114.852 20.6408 115.156 21.8005H112.722C112.525 21.2608 112.209 20.8377 111.774 20.5338C111.338 20.2299 110.791 20.0791 110.132 20.0791C109.208 20.0791 108.474 20.4049 107.927 21.059C107.38 21.7106 107.105 22.6248 107.105 23.7991C107.105 24.9735 107.378 25.8901 107.927 26.549C108.474 27.208 109.208 27.5386 110.132 27.5386C111.438 27.5386 112.301 26.9648 112.724 25.8172H115.158C114.842 26.9259 114.249 27.8036 113.378 28.4577C112.508 29.1093 111.426 29.4375 110.135 29.4375C109.094 29.4375 108.17 29.2041 107.365 28.7349C106.561 28.268 105.931 27.6067 105.476 26.7581C105.022 25.9072 104.793 24.9224 104.793 23.8016C104.791 22.6783 105.019 21.6935 105.474 20.8426Z" fill="black"/>
    <path d="M119.664 18.3601H117.41V29.2576H119.664V18.3601Z" fill="black"/>
    <path d="M130.431 18.7151C131.11 19.0701 131.64 19.5977 132.024 20.2979C132.406 20.9957 132.598 21.8394 132.598 22.829V29.2576H130.363V23.167C130.363 22.192 130.12 21.4431 129.631 20.9228C129.143 20.4025 128.476 20.1423 127.633 20.1423C126.789 20.1423 126.12 20.4025 125.624 20.9228C125.131 21.4431 124.883 22.192 124.883 23.167V29.2576H122.629V18.3601H124.883V19.605C125.252 19.1576 125.724 18.8075 126.298 18.557C126.872 18.3066 127.482 18.1802 128.126 18.1802C128.985 18.1826 129.753 18.3601 130.431 18.7151Z" fill="black"/>
    <path d="M145.373 24.6501H137.048C137.113 25.5206 137.437 26.2184 138.018 26.746C138.599 27.2736 139.309 27.5362 140.152 27.5362C141.366 27.5362 142.222 27.028 142.722 26.0141H145.154C144.823 27.0159 144.227 27.8377 143.364 28.4772C142.501 29.1166 141.429 29.4376 140.15 29.4376C139.109 29.4376 138.176 29.2041 137.351 28.7349C136.527 28.2681 135.88 27.6067 135.414 26.7582C134.944 25.9072 134.711 24.9225 134.711 23.8016C134.711 22.6807 134.939 21.696 135.394 20.845C135.849 19.994 136.488 19.34 137.313 18.878C138.137 18.416 139.083 18.1851 140.15 18.1851C141.178 18.1851 142.095 18.4087 142.9 18.8586C143.705 19.3059 144.33 19.9357 144.779 20.7477C145.227 21.5598 145.453 22.4911 145.453 23.5463C145.453 23.9499 145.426 24.3195 145.373 24.6501ZM143.099 22.829C143.087 21.9975 142.788 21.3337 142.209 20.8304C141.628 20.3295 140.911 20.0791 140.053 20.0791C139.275 20.0791 138.608 20.3271 138.054 20.8207C137.5 21.3143 137.172 21.9853 137.065 22.829H143.099Z" fill="black"/>
    <path d="M147.549 28.9805C147.271 28.7034 147.133 28.3605 147.133 27.9521C147.133 27.5436 147.271 27.2008 147.549 26.9236C147.826 26.6464 148.169 26.5078 148.577 26.5078C148.973 26.5078 149.309 26.6464 149.586 26.9236C149.863 27.2008 150.002 27.5436 150.002 27.9521C150.002 28.3605 149.863 28.7034 149.586 28.9805C149.309 29.2577 148.973 29.3963 148.577 29.3963C148.169 29.3963 147.826 29.2577 147.549 28.9805Z" fill="#0E97B5"/>
    <path d="M118.545 16.9255C119.345 16.9255 119.994 16.2746 119.994 15.4716C119.994 14.6685 119.345 14.0176 118.545 14.0176C117.744 14.0176 117.096 14.6685 117.096 15.4716C117.096 16.2746 117.744 16.9255 118.545 16.9255Z" fill="black"/>
    <path d="M101.459 16.9255C102.259 16.9255 102.908 16.2746 102.908 15.4716C102.908 14.6685 102.259 14.0176 101.459 14.0176C100.659 14.0176 100.01 14.6685 100.01 15.4716C100.01 16.2746 100.659 16.9255 101.459 16.9255Z" fill="black"/>
  </g>
  <defs>
    <clipPath id="clip0_3104_3744">
      <rect width="150" height="42.3549" fill="white" transform="translate(0 0.82251)"/>
    </clipPath>
  </defs>
</svg>