<svg width="20" height="21" viewBox="0 0 20 21" fill="none" xmlns="http://www.w3.org/2000/svg">
<path d="M17.8622 2.65161C17.4453 2.22379 16.8284 2.06441 16.2532 2.23218L2.83935 6.1329C2.23243 6.30151 1.80225 6.78553 1.68637 7.40042C1.56799 8.02621 1.98149 8.82062 2.52172 9.15281L6.71593 11.7306C7.14611 11.9949 7.70134 11.9286 8.05732 11.5696L12.8601 6.73688C13.1019 6.48522 13.502 6.48522 13.7438 6.73688C13.9856 6.98015 13.9856 7.37441 13.7438 7.62607L8.93267 12.4596C8.57586 12.8178 8.50917 13.3756 8.77177 13.8085L11.3345 18.0448C11.6346 18.5481 12.1515 18.8333 12.7184 18.8333C12.7851 18.8333 12.8601 18.8333 12.9268 18.8249C13.5771 18.741 14.094 18.2964 14.2857 17.6673L18.2623 4.27062C18.4374 3.70019 18.279 3.07943 17.8622 2.65161Z" fill="white"/>
</svg>
